<svg xmlns="http://www.w3.org/2000/svg" width="32.039" height="30.38" viewBox="0 0 32.039 30.38"><defs><style>.a{fill:#fff;}</style></defs><path class="a" d="M15.912,16.634H38.505a1.327,1.327,0,0,0,1.283-1,1.274,1.274,0,0,0-.641-1.461L27.85,8.01a1.293,1.293,0,0,0-1.247,0L15.27,14.176a1.293,1.293,0,0,0-.641,1.461A1.327,1.327,0,0,0,15.912,16.634Zm-.143-1.568L27.066,8.9c.036-.036.071-.036.143-.036a.214.214,0,0,1,.143.036l11.3,6.165a.293.293,0,0,1,.143.321c0,.071-.071.214-.285.214H15.912a.318.318,0,0,1-.285-.214A.365.365,0,0,1,15.769,15.066Z" transform="translate(-11.172 -7.85)"/><path class="a" d="M46.038,20.276A2.138,2.138,0,1,0,43.9,18.138,2.168,2.168,0,0,0,46.038,20.276Zm0-3.243a1.1,1.1,0,1,1-1.1,1.1A1.134,1.134,0,0,1,46.038,17.033Z" transform="translate(-30.037 -13.096)"/><path class="a" d="M35.968,52.022H34.258V50.24a1.11,1.11,0,0,0-1.1-1.1H31.442V37.161A1.468,1.468,0,0,0,29.981,35.7h-.962a1.468,1.468,0,0,0-1.461,1.461V49.1H25.776V37.161A1.468,1.468,0,0,0,24.315,35.7h-.962a1.468,1.468,0,0,0-1.461,1.461V49.1H20.11V37.161A1.468,1.468,0,0,0,18.649,35.7h-.962a1.468,1.468,0,0,0-1.461,1.461V49.1H14.444V37.161A1.468,1.468,0,0,0,12.983,35.7H12.02a1.468,1.468,0,0,0-1.461,1.461V49.1H8.92a1.11,1.11,0,0,0-1.1,1.1v1.782H6.1a1.11,1.11,0,0,0-1.1,1.1V55.3a.844.844,0,0,0,.855.855H36.182a.844.844,0,0,0,.855-.855V53.091A1.029,1.029,0,0,0,35.968,52.022ZM8.849,50.24a.077.077,0,0,1,.071-.071h2.744V37.161a.433.433,0,0,1,.428-.428h.962a.433.433,0,0,1,.428.428V50.133H17.33V37.161a.433.433,0,0,1,.428-.428h.962a.433.433,0,0,1,.428.428V50.133H23V37.161a.433.433,0,0,1,.428-.428h.962a.433.433,0,0,1,.428.428V50.133h3.849V37.161a.433.433,0,0,1,.428-.428h.962a.433.433,0,0,1,.428.428V50.133h2.673a.077.077,0,0,1,.071.071v1.782H8.849ZM36.04,55.158H6.033V53.126a.077.077,0,0,1,.071-.071H35.968a.077.077,0,0,1,.071.071v2.031Z" transform="translate(-5 -25.775)"/></svg>